<svg width="580" height="371" viewBox="0 0 580 371" fill="none" xmlns="http://www.w3.org/2000/svg">
<rect x="283" y="79" width="288" height="80" rx="6" fill="#005FFF"/>
<path d="M370.561 116.222H367.902C367.8 115.653 367.61 115.153 367.331 114.722C367.053 114.29 366.712 113.923 366.308 113.622C365.905 113.321 365.453 113.094 364.953 112.94C364.459 112.787 363.933 112.71 363.377 112.71C362.371 112.71 361.47 112.963 360.675 113.469C359.885 113.974 359.26 114.716 358.8 115.693C358.345 116.67 358.118 117.864 358.118 119.273C358.118 120.693 358.345 121.892 358.8 122.869C359.26 123.847 359.888 124.585 360.683 125.085C361.479 125.585 362.374 125.835 363.368 125.835C363.919 125.835 364.442 125.761 364.936 125.614C365.436 125.46 365.888 125.236 366.291 124.94C366.695 124.645 367.036 124.284 367.314 123.858C367.598 123.426 367.794 122.932 367.902 122.375L370.561 122.384C370.419 123.241 370.144 124.031 369.735 124.753C369.331 125.469 368.811 126.088 368.175 126.611C367.544 127.128 366.823 127.528 366.01 127.812C365.198 128.097 364.311 128.239 363.351 128.239C361.84 128.239 360.493 127.881 359.311 127.165C358.129 126.443 357.198 125.412 356.516 124.071C355.84 122.73 355.502 121.131 355.502 119.273C355.502 117.409 355.843 115.81 356.524 114.474C357.206 113.134 358.138 112.105 359.32 111.389C360.502 110.668 361.845 110.307 363.351 110.307C364.277 110.307 365.141 110.44 365.942 110.707C366.749 110.969 367.473 111.355 368.115 111.866C368.757 112.372 369.289 112.991 369.709 113.724C370.129 114.452 370.414 115.284 370.561 116.222ZM378.758 128.264C377.531 128.264 376.46 127.983 375.545 127.42C374.63 126.858 373.92 126.071 373.414 125.06C372.909 124.048 372.656 122.866 372.656 121.514C372.656 120.156 372.909 118.969 373.414 117.952C373.92 116.935 374.63 116.145 375.545 115.582C376.46 115.02 377.531 114.739 378.758 114.739C379.985 114.739 381.057 115.02 381.971 115.582C382.886 116.145 383.596 116.935 384.102 117.952C384.608 118.969 384.86 120.156 384.86 121.514C384.86 122.866 384.608 124.048 384.102 125.06C383.596 126.071 382.886 126.858 381.971 127.42C381.057 127.983 379.985 128.264 378.758 128.264ZM378.767 126.125C379.562 126.125 380.221 125.915 380.744 125.494C381.267 125.074 381.653 124.514 381.903 123.815C382.159 123.116 382.287 122.347 382.287 121.506C382.287 120.67 382.159 119.903 381.903 119.205C381.653 118.5 381.267 117.935 380.744 117.509C380.221 117.082 379.562 116.869 378.767 116.869C377.966 116.869 377.301 117.082 376.772 117.509C376.25 117.935 375.86 118.5 375.605 119.205C375.355 119.903 375.23 120.67 375.23 121.506C375.23 122.347 375.355 123.116 375.605 123.815C375.86 124.514 376.25 125.074 376.772 125.494C377.301 125.915 377.966 126.125 378.767 126.125ZM389.989 110.545V128H387.441V110.545H389.989ZM398.668 128.264C397.44 128.264 396.369 127.983 395.455 127.42C394.54 126.858 393.83 126.071 393.324 125.06C392.818 124.048 392.565 122.866 392.565 121.514C392.565 120.156 392.818 118.969 393.324 117.952C393.83 116.935 394.54 116.145 395.455 115.582C396.369 115.02 397.44 114.739 398.668 114.739C399.895 114.739 400.966 115.02 401.881 115.582C402.796 116.145 403.506 116.935 404.011 117.952C404.517 118.969 404.77 120.156 404.77 121.514C404.77 122.866 404.517 124.048 404.011 125.06C403.506 126.071 402.796 126.858 401.881 127.42C400.966 127.983 399.895 128.264 398.668 128.264ZM398.676 126.125C399.472 126.125 400.131 125.915 400.654 125.494C401.176 125.074 401.563 124.514 401.813 123.815C402.068 123.116 402.196 122.347 402.196 121.506C402.196 120.67 402.068 119.903 401.813 119.205C401.563 118.5 401.176 117.935 400.654 117.509C400.131 117.082 399.472 116.869 398.676 116.869C397.875 116.869 397.21 117.082 396.682 117.509C396.159 117.935 395.77 118.5 395.514 119.205C395.264 119.903 395.139 120.67 395.139 121.506C395.139 122.347 395.264 123.116 395.514 123.815C395.77 124.514 396.159 125.074 396.682 125.494C397.21 125.915 397.875 126.125 398.676 126.125ZM407.35 128V114.909H409.814V116.989H409.95C410.189 116.284 410.609 115.73 411.211 115.327C411.819 114.918 412.507 114.713 413.274 114.713C413.433 114.713 413.62 114.719 413.836 114.73C414.058 114.741 414.231 114.756 414.356 114.773V117.21C414.254 117.182 414.072 117.151 413.811 117.116C413.549 117.077 413.288 117.057 413.027 117.057C412.424 117.057 411.887 117.185 411.416 117.44C410.95 117.69 410.581 118.04 410.308 118.489C410.035 118.932 409.899 119.437 409.899 120.006V128H407.35ZM422.589 128V110.545H428.811C430.169 110.545 431.294 110.793 432.186 111.287C433.078 111.781 433.746 112.457 434.189 113.315C434.632 114.168 434.854 115.128 434.854 116.196C434.854 117.27 434.629 118.236 434.18 119.094C433.737 119.946 433.067 120.622 432.169 121.122C431.277 121.616 430.155 121.864 428.803 121.864H424.524V119.631H428.564C429.422 119.631 430.118 119.483 430.652 119.188C431.186 118.886 431.578 118.477 431.828 117.96C432.078 117.443 432.203 116.855 432.203 116.196C432.203 115.537 432.078 114.952 431.828 114.44C431.578 113.929 431.183 113.528 430.643 113.239C430.109 112.949 429.405 112.804 428.53 112.804H425.223V128H422.589ZM441.165 128.29C440.335 128.29 439.585 128.136 438.915 127.83C438.245 127.517 437.713 127.065 437.321 126.474C436.935 125.884 436.742 125.159 436.742 124.301C436.742 123.562 436.884 122.955 437.168 122.477C437.452 122 437.835 121.622 438.318 121.344C438.801 121.065 439.341 120.855 439.938 120.713C440.534 120.571 441.142 120.463 441.762 120.389C442.546 120.298 443.182 120.224 443.671 120.168C444.159 120.105 444.514 120.006 444.736 119.869C444.958 119.733 445.068 119.511 445.068 119.205V119.145C445.068 118.401 444.858 117.824 444.438 117.415C444.023 117.006 443.404 116.801 442.58 116.801C441.722 116.801 441.046 116.991 440.551 117.372C440.063 117.747 439.725 118.165 439.537 118.625L437.142 118.08C437.426 117.284 437.841 116.642 438.387 116.153C438.938 115.659 439.571 115.301 440.287 115.08C441.003 114.852 441.756 114.739 442.546 114.739C443.068 114.739 443.622 114.801 444.208 114.926C444.798 115.045 445.35 115.267 445.861 115.591C446.378 115.915 446.801 116.378 447.131 116.98C447.46 117.577 447.625 118.352 447.625 119.307V128H445.137V126.21H445.034C444.87 126.54 444.622 126.864 444.293 127.182C443.963 127.5 443.54 127.764 443.023 127.974C442.506 128.185 441.887 128.29 441.165 128.29ZM441.719 126.244C442.423 126.244 443.026 126.105 443.526 125.827C444.031 125.548 444.415 125.185 444.676 124.736C444.943 124.281 445.077 123.795 445.077 123.278V121.591C444.986 121.682 444.81 121.767 444.548 121.847C444.293 121.92 444 121.986 443.671 122.043C443.341 122.094 443.02 122.142 442.708 122.188C442.395 122.227 442.134 122.261 441.923 122.29C441.429 122.352 440.977 122.457 440.568 122.605C440.165 122.753 439.841 122.966 439.597 123.244C439.358 123.517 439.239 123.881 439.239 124.335C439.239 124.966 439.472 125.443 439.938 125.767C440.404 126.085 440.997 126.244 441.719 126.244ZM453.304 110.545V128H450.755V110.545H453.304ZM462.11 128.264C460.82 128.264 459.709 127.989 458.778 127.438C457.851 126.881 457.136 126.099 456.63 125.094C456.13 124.082 455.88 122.898 455.88 121.54C455.88 120.199 456.13 119.017 456.63 117.994C457.136 116.972 457.84 116.173 458.744 115.599C459.653 115.026 460.715 114.739 461.931 114.739C462.67 114.739 463.386 114.861 464.079 115.105C464.772 115.349 465.394 115.733 465.945 116.256C466.496 116.778 466.931 117.457 467.249 118.293C467.567 119.122 467.726 120.131 467.726 121.318V122.222H457.32V120.312H465.229C465.229 119.642 465.093 119.048 464.82 118.531C464.547 118.009 464.164 117.597 463.67 117.295C463.181 116.994 462.607 116.844 461.948 116.844C461.232 116.844 460.607 117.02 460.073 117.372C459.545 117.719 459.136 118.173 458.846 118.736C458.562 119.293 458.42 119.898 458.42 120.551V122.043C458.42 122.918 458.573 123.662 458.88 124.276C459.192 124.889 459.627 125.358 460.184 125.682C460.741 126 461.391 126.159 462.136 126.159C462.619 126.159 463.059 126.091 463.457 125.955C463.854 125.812 464.198 125.602 464.488 125.324C464.778 125.045 464.999 124.702 465.153 124.293L467.565 124.727C467.371 125.437 467.025 126.06 466.525 126.594C466.03 127.122 465.408 127.534 464.658 127.83C463.914 128.119 463.065 128.264 462.11 128.264ZM476.401 114.909V116.955H469.25V114.909H476.401ZM471.168 111.773H473.716V124.156C473.716 124.651 473.79 125.023 473.938 125.273C474.085 125.517 474.276 125.685 474.509 125.776C474.747 125.861 475.006 125.903 475.284 125.903C475.489 125.903 475.668 125.889 475.821 125.861C475.975 125.832 476.094 125.81 476.179 125.793L476.639 127.898C476.492 127.955 476.281 128.011 476.009 128.068C475.736 128.131 475.395 128.165 474.986 128.17C474.315 128.182 473.69 128.062 473.111 127.812C472.531 127.562 472.063 127.176 471.705 126.653C471.347 126.131 471.168 125.474 471.168 124.685V111.773ZM485.066 114.909V116.955H477.916V114.909H485.066ZM479.833 111.773H482.382V124.156C482.382 124.651 482.456 125.023 482.603 125.273C482.751 125.517 482.941 125.685 483.174 125.776C483.413 125.861 483.671 125.903 483.95 125.903C484.154 125.903 484.333 125.889 484.487 125.861C484.64 125.832 484.76 125.81 484.845 125.793L485.305 127.898C485.157 127.955 484.947 128.011 484.674 128.068C484.402 128.131 484.061 128.165 483.652 128.17C482.981 128.182 482.356 128.062 481.777 127.812C481.197 127.562 480.728 127.176 480.37 126.653C480.012 126.131 479.833 125.474 479.833 124.685V111.773ZM493.123 128.264C491.833 128.264 490.722 127.989 489.79 127.438C488.864 126.881 488.148 126.099 487.643 125.094C487.143 124.082 486.893 122.898 486.893 121.54C486.893 120.199 487.143 119.017 487.643 117.994C488.148 116.972 488.853 116.173 489.756 115.599C490.665 115.026 491.728 114.739 492.944 114.739C493.682 114.739 494.398 114.861 495.091 115.105C495.785 115.349 496.407 115.733 496.958 116.256C497.509 116.778 497.944 117.457 498.262 118.293C498.58 119.122 498.739 120.131 498.739 121.318V122.222H488.333V120.312H496.242C496.242 119.642 496.106 119.048 495.833 118.531C495.56 118.009 495.177 117.597 494.682 117.295C494.194 116.994 493.62 116.844 492.961 116.844C492.245 116.844 491.62 117.02 491.086 117.372C490.557 117.719 490.148 118.173 489.858 118.736C489.574 119.293 489.432 119.898 489.432 120.551V122.043C489.432 122.918 489.586 123.662 489.893 124.276C490.205 124.889 490.64 125.358 491.197 125.682C491.753 126 492.404 126.159 493.148 126.159C493.631 126.159 494.072 126.091 494.469 125.955C494.867 125.812 495.211 125.602 495.501 125.324C495.79 125.045 496.012 124.702 496.165 124.293L498.577 124.727C498.384 125.437 498.037 126.06 497.537 126.594C497.043 127.122 496.421 127.534 495.671 127.83C494.927 128.119 494.077 128.264 493.123 128.264Z" fill="white"/>
<rect x="283" y="183" width="288" height="80" rx="6" fill="#005FFF"/>
<path d="M390.656 214.545V232H388.023V214.545H390.656ZM394.023 232V218.909H396.469V221.04H396.631C396.904 220.318 397.35 219.756 397.969 219.352C398.588 218.943 399.33 218.739 400.194 218.739C401.069 218.739 401.802 218.943 402.392 219.352C402.989 219.761 403.429 220.324 403.713 221.04H403.85C404.162 220.341 404.659 219.784 405.341 219.369C406.023 218.949 406.836 218.739 407.779 218.739C408.966 218.739 409.935 219.111 410.685 219.855C411.441 220.599 411.819 221.722 411.819 223.222V232H409.27V223.46C409.27 222.574 409.029 221.932 408.546 221.534C408.063 221.136 407.486 220.938 406.816 220.938C405.986 220.938 405.341 221.193 404.881 221.705C404.421 222.21 404.191 222.861 404.191 223.656V232H401.651V223.298C401.651 222.588 401.429 222.017 400.986 221.585C400.543 221.153 399.966 220.938 399.256 220.938C398.773 220.938 398.327 221.065 397.918 221.321C397.515 221.571 397.188 221.92 396.938 222.369C396.694 222.818 396.571 223.338 396.571 223.929V232H394.023ZM418.78 232.29C417.95 232.29 417.2 232.136 416.53 231.83C415.859 231.517 415.328 231.065 414.936 230.474C414.55 229.884 414.356 229.159 414.356 228.301C414.356 227.562 414.498 226.955 414.783 226.477C415.067 226 415.45 225.622 415.933 225.344C416.416 225.065 416.956 224.855 417.552 224.713C418.149 224.571 418.757 224.463 419.376 224.389C420.16 224.298 420.797 224.224 421.285 224.168C421.774 224.105 422.129 224.006 422.351 223.869C422.572 223.733 422.683 223.511 422.683 223.205V223.145C422.683 222.401 422.473 221.824 422.052 221.415C421.638 221.006 421.018 220.801 420.195 220.801C419.337 220.801 418.66 220.991 418.166 221.372C417.677 221.747 417.339 222.165 417.152 222.625L414.757 222.08C415.041 221.284 415.456 220.642 416.001 220.153C416.552 219.659 417.186 219.301 417.902 219.08C418.618 218.852 419.371 218.739 420.16 218.739C420.683 218.739 421.237 218.801 421.822 218.926C422.413 219.045 422.964 219.267 423.476 219.591C423.993 219.915 424.416 220.378 424.746 220.98C425.075 221.577 425.24 222.352 425.24 223.307V232H422.751V230.21H422.649C422.484 230.54 422.237 230.864 421.908 231.182C421.578 231.5 421.155 231.764 420.638 231.974C420.121 232.185 419.501 232.29 418.78 232.29ZM419.334 230.244C420.038 230.244 420.641 230.105 421.141 229.827C421.646 229.548 422.03 229.185 422.291 228.736C422.558 228.281 422.692 227.795 422.692 227.278V225.591C422.601 225.682 422.425 225.767 422.163 225.847C421.908 225.92 421.615 225.986 421.285 226.043C420.956 226.094 420.635 226.142 420.322 226.188C420.01 226.227 419.748 226.261 419.538 226.29C419.044 226.352 418.592 226.457 418.183 226.605C417.78 226.753 417.456 226.966 417.212 227.244C416.973 227.517 416.854 227.881 416.854 228.335C416.854 228.966 417.087 229.443 417.552 229.767C418.018 230.085 418.612 230.244 419.334 230.244ZM433.859 237.182C432.819 237.182 431.924 237.045 431.174 236.773C430.43 236.5 429.822 236.139 429.35 235.69C428.879 235.241 428.526 234.75 428.293 234.216L430.484 233.312C430.637 233.562 430.842 233.827 431.097 234.105C431.359 234.389 431.711 234.631 432.154 234.83C432.603 235.028 433.18 235.128 433.884 235.128C434.85 235.128 435.649 234.892 436.279 234.42C436.91 233.955 437.225 233.21 437.225 232.188V229.614H437.063C436.91 229.892 436.688 230.202 436.399 230.543C436.114 230.884 435.722 231.179 435.222 231.429C434.722 231.679 434.072 231.804 433.271 231.804C432.237 231.804 431.305 231.562 430.475 231.08C429.651 230.591 428.998 229.872 428.515 228.923C428.038 227.969 427.799 226.795 427.799 225.403C427.799 224.011 428.035 222.818 428.506 221.824C428.984 220.83 429.637 220.068 430.467 219.54C431.296 219.006 432.237 218.739 433.288 218.739C434.1 218.739 434.756 218.875 435.256 219.148C435.756 219.415 436.146 219.727 436.424 220.085C436.708 220.443 436.927 220.759 437.08 221.031H437.268V218.909H439.765V232.29C439.765 233.415 439.504 234.338 438.981 235.06C438.458 235.781 437.751 236.315 436.859 236.662C435.972 237.009 434.972 237.182 433.859 237.182ZM433.833 229.69C434.566 229.69 435.185 229.52 435.691 229.179C436.203 228.832 436.589 228.338 436.85 227.696C437.117 227.048 437.251 226.273 437.251 225.369C437.251 224.489 437.12 223.713 436.859 223.043C436.597 222.372 436.214 221.849 435.708 221.474C435.203 221.094 434.578 220.903 433.833 220.903C433.066 220.903 432.427 221.102 431.916 221.5C431.404 221.892 431.018 222.426 430.756 223.102C430.501 223.778 430.373 224.534 430.373 225.369C430.373 226.227 430.504 226.98 430.765 227.628C431.026 228.276 431.413 228.781 431.924 229.145C432.441 229.509 433.078 229.69 433.833 229.69ZM448.561 232.264C447.271 232.264 446.16 231.989 445.228 231.438C444.302 230.881 443.586 230.099 443.081 229.094C442.581 228.082 442.331 226.898 442.331 225.54C442.331 224.199 442.581 223.017 443.081 221.994C443.586 220.972 444.291 220.173 445.194 219.599C446.103 219.026 447.166 218.739 448.382 218.739C449.12 218.739 449.836 218.861 450.529 219.105C451.223 219.349 451.845 219.733 452.396 220.256C452.947 220.778 453.382 221.457 453.7 222.293C454.018 223.122 454.177 224.131 454.177 225.318V226.222H443.771V224.312H451.68C451.68 223.642 451.544 223.048 451.271 222.531C450.998 222.009 450.615 221.597 450.12 221.295C449.632 220.994 449.058 220.844 448.399 220.844C447.683 220.844 447.058 221.02 446.524 221.372C445.995 221.719 445.586 222.173 445.296 222.736C445.012 223.293 444.87 223.898 444.87 224.551V226.043C444.87 226.918 445.024 227.662 445.331 228.276C445.643 228.889 446.078 229.358 446.635 229.682C447.191 230 447.842 230.159 448.586 230.159C449.069 230.159 449.51 230.091 449.907 229.955C450.305 229.812 450.649 229.602 450.939 229.324C451.228 229.045 451.45 228.702 451.603 228.293L454.015 228.727C453.822 229.437 453.475 230.06 452.975 230.594C452.481 231.122 451.859 231.534 451.109 231.83C450.365 232.119 449.515 232.264 448.561 232.264ZM466.55 222.105L464.241 222.514C464.144 222.219 463.991 221.937 463.78 221.67C463.576 221.403 463.297 221.185 462.945 221.014C462.593 220.844 462.152 220.759 461.624 220.759C460.902 220.759 460.3 220.92 459.817 221.244C459.334 221.562 459.093 221.974 459.093 222.48C459.093 222.918 459.255 223.27 459.579 223.537C459.902 223.804 460.425 224.023 461.147 224.193L463.226 224.67C464.431 224.949 465.329 225.378 465.92 225.957C466.51 226.537 466.806 227.29 466.806 228.216C466.806 229 466.579 229.699 466.124 230.312C465.675 230.92 465.047 231.398 464.241 231.744C463.439 232.091 462.51 232.264 461.454 232.264C459.988 232.264 458.792 231.952 457.866 231.327C456.939 230.696 456.371 229.801 456.161 228.642L458.624 228.267C458.777 228.909 459.093 229.395 459.57 229.724C460.047 230.048 460.67 230.21 461.437 230.21C462.272 230.21 462.939 230.037 463.439 229.69C463.939 229.338 464.189 228.909 464.189 228.403C464.189 227.994 464.036 227.651 463.729 227.372C463.428 227.094 462.965 226.884 462.34 226.741L460.124 226.256C458.902 225.977 457.999 225.534 457.414 224.926C456.834 224.318 456.545 223.548 456.545 222.616C456.545 221.844 456.76 221.168 457.192 220.588C457.624 220.009 458.221 219.557 458.982 219.233C459.743 218.903 460.616 218.739 461.599 218.739C463.013 218.739 464.127 219.045 464.939 219.659C465.752 220.267 466.289 221.082 466.55 222.105Z" fill="white"/>
<rect x="283" y="283" width="288" height="80" rx="6" fill="#005FFF"/>
<path d="M397.7 332V314.545H408.523V316.812H400.333V322.131H407.748V324.389H400.333V332H397.7ZM415.847 332.264C414.619 332.264 413.548 331.983 412.634 331.42C411.719 330.858 411.009 330.071 410.503 329.06C409.997 328.048 409.744 326.866 409.744 325.514C409.744 324.156 409.997 322.969 410.503 321.952C411.009 320.935 411.719 320.145 412.634 319.582C413.548 319.02 414.619 318.739 415.847 318.739C417.074 318.739 418.145 319.02 419.06 319.582C419.975 320.145 420.685 320.935 421.19 321.952C421.696 322.969 421.949 324.156 421.949 325.514C421.949 326.866 421.696 328.048 421.19 329.06C420.685 330.071 419.975 330.858 419.06 331.42C418.145 331.983 417.074 332.264 415.847 332.264ZM415.855 330.125C416.651 330.125 417.31 329.915 417.833 329.494C418.355 329.074 418.742 328.514 418.992 327.815C419.247 327.116 419.375 326.347 419.375 325.506C419.375 324.67 419.247 323.903 418.992 323.205C418.742 322.5 418.355 321.935 417.833 321.509C417.31 321.082 416.651 320.869 415.855 320.869C415.054 320.869 414.389 321.082 413.861 321.509C413.338 321.935 412.949 322.5 412.693 323.205C412.443 323.903 412.318 324.67 412.318 325.506C412.318 326.347 412.443 327.116 412.693 327.815C412.949 328.514 413.338 329.074 413.861 329.494C414.389 329.915 415.054 330.125 415.855 330.125ZM427.078 324.227V332H424.529V318.909H426.975V321.04H427.137C427.439 320.347 427.91 319.79 428.552 319.369C429.2 318.949 430.015 318.739 430.998 318.739C431.89 318.739 432.672 318.926 433.342 319.301C434.012 319.67 434.532 320.222 434.902 320.955C435.271 321.687 435.456 322.594 435.456 323.673V332H432.907V323.98C432.907 323.031 432.66 322.29 432.166 321.756C431.672 321.216 430.993 320.946 430.129 320.946C429.538 320.946 429.012 321.074 428.552 321.33C428.098 321.585 427.737 321.96 427.47 322.455C427.208 322.943 427.078 323.534 427.078 324.227ZM444.72 318.909V320.955H437.569V318.909H444.72ZM439.487 315.773H442.035V328.156C442.035 328.651 442.109 329.023 442.257 329.273C442.405 329.517 442.595 329.685 442.828 329.776C443.067 329.861 443.325 329.903 443.604 329.903C443.808 329.903 443.987 329.889 444.14 329.861C444.294 329.832 444.413 329.81 444.498 329.793L444.959 331.898C444.811 331.955 444.601 332.011 444.328 332.068C444.055 332.131 443.714 332.165 443.305 332.17C442.635 332.182 442.01 332.062 441.43 331.812C440.851 331.562 440.382 331.176 440.024 330.653C439.666 330.131 439.487 329.474 439.487 328.685V315.773ZM456.874 322.105L454.564 322.514C454.467 322.219 454.314 321.937 454.104 321.67C453.899 321.403 453.621 321.185 453.269 321.014C452.916 320.844 452.476 320.759 451.947 320.759C451.226 320.759 450.624 320.92 450.141 321.244C449.658 321.562 449.416 321.974 449.416 322.48C449.416 322.918 449.578 323.27 449.902 323.537C450.226 323.804 450.749 324.023 451.47 324.193L453.55 324.67C454.754 324.949 455.652 325.378 456.243 325.957C456.834 326.537 457.129 327.29 457.129 328.216C457.129 329 456.902 329.699 456.447 330.312C455.999 330.92 455.371 331.398 454.564 331.744C453.763 332.091 452.834 332.264 451.777 332.264C450.311 332.264 449.115 331.952 448.189 331.327C447.263 330.696 446.695 329.801 446.484 328.642L448.947 328.267C449.101 328.909 449.416 329.395 449.894 329.724C450.371 330.048 450.993 330.21 451.76 330.21C452.595 330.21 453.263 330.037 453.763 329.69C454.263 329.338 454.513 328.909 454.513 328.403C454.513 327.994 454.359 327.651 454.053 327.372C453.751 327.094 453.288 326.884 452.663 326.741L450.447 326.256C449.226 325.977 448.322 325.534 447.737 324.926C447.158 324.318 446.868 323.548 446.868 322.616C446.868 321.844 447.084 321.168 447.516 320.588C447.947 320.009 448.544 319.557 449.305 319.233C450.067 318.903 450.939 318.739 451.922 318.739C453.337 318.739 454.45 319.045 455.263 319.659C456.075 320.267 456.612 321.082 456.874 322.105Z" fill="white"/>
<rect x="7" y="3" width="308" height="60" rx="6" fill="#005FFF"/>
<path d="M60.3376 42H56.3831L62.4086 24.5455H67.1643L73.1814 42H69.2268L64.8546 28.5341H64.7183L60.3376 42ZM60.0904 35.1392H69.4314V38.0199H60.0904V35.1392ZM74.95 46.9091V28.9091H78.5296V31.108H78.6915C78.8506 30.7557 79.0807 30.3977 79.3818 30.0341C79.6887 29.6648 80.0864 29.358 80.575 29.1136C81.0693 28.8636 81.683 28.7386 82.4159 28.7386C83.3705 28.7386 84.2512 28.9886 85.058 29.4886C85.8648 29.983 86.5097 30.7301 86.9926 31.7301C87.4756 32.7244 87.7171 33.9716 87.7171 35.4716C87.7171 36.9318 87.4813 38.1648 87.0097 39.1705C86.5438 40.1705 85.9074 40.929 85.1006 41.446C84.2995 41.9574 83.4017 42.2131 82.4074 42.2131C81.7029 42.2131 81.1034 42.0966 80.6091 41.8636C80.1205 41.6307 79.7199 41.3381 79.4074 40.9858C79.0949 40.6278 78.8563 40.267 78.6915 39.9034H78.5807V46.9091H74.95ZM78.504 35.4545C78.504 36.233 78.612 36.9119 78.8279 37.4915C79.0438 38.071 79.3563 38.5227 79.7654 38.8466C80.1745 39.1648 80.6716 39.3239 81.2568 39.3239C81.8478 39.3239 82.3478 39.1619 82.7568 38.8381C83.1659 38.5085 83.4756 38.054 83.6858 37.4744C83.9017 36.8892 84.0097 36.2159 84.0097 35.4545C84.0097 34.6989 83.9046 34.0341 83.6943 33.4602C83.4841 32.8864 83.1745 32.4375 82.7654 32.1136C82.3563 31.7898 81.8534 31.6278 81.2568 31.6278C80.6659 31.6278 80.1659 31.7841 79.7568 32.0966C79.3534 32.4091 79.0438 32.8523 78.8279 33.4261C78.612 34 78.504 34.6761 78.504 35.4545ZM89.8735 46.9091V28.9091H93.4531V31.108H93.615C93.7741 30.7557 94.0042 30.3977 94.3053 30.0341C94.6122 29.6648 95.0099 29.358 95.4985 29.1136C95.9928 28.8636 96.6065 28.7386 97.3394 28.7386C98.294 28.7386 99.1747 28.9886 99.9815 29.4886C100.788 29.983 101.433 30.7301 101.916 31.7301C102.399 32.7244 102.641 33.9716 102.641 35.4716C102.641 36.9318 102.405 38.1648 101.933 39.1705C101.467 40.1705 100.831 40.929 100.024 41.446C99.223 41.9574 98.3252 42.2131 97.3309 42.2131C96.6264 42.2131 96.0269 42.0966 95.5326 41.8636C95.044 41.6307 94.6434 41.3381 94.3309 40.9858C94.0184 40.6278 93.7798 40.267 93.615 39.9034H93.5042V46.9091H89.8735ZM93.4275 35.4545C93.4275 36.233 93.5355 36.9119 93.7514 37.4915C93.9673 38.071 94.2798 38.5227 94.6889 38.8466C95.098 39.1648 95.5951 39.3239 96.1803 39.3239C96.7713 39.3239 97.2713 39.1619 97.6803 38.8381C98.0894 38.5085 98.3991 38.054 98.6093 37.4744C98.8252 36.8892 98.9332 36.2159 98.9332 35.4545C98.9332 34.6989 98.8281 34.0341 98.6178 33.4602C98.4076 32.8864 98.098 32.4375 97.6889 32.1136C97.2798 31.7898 96.7769 31.6278 96.1803 31.6278C95.5894 31.6278 95.0894 31.7841 94.6803 32.0966C94.2769 32.4091 93.9673 32.8523 93.7514 33.4261C93.5355 34 93.4275 34.6761 93.4275 35.4545ZM110.763 42.2557C109.416 42.2557 108.257 41.983 107.286 41.4375C106.32 40.8864 105.575 40.108 105.053 39.1023C104.53 38.0909 104.269 36.8949 104.269 35.5142C104.269 34.1676 104.53 32.9858 105.053 31.9688C105.575 30.9517 106.311 30.1591 107.26 29.5909C108.215 29.0227 109.334 28.7386 110.618 28.7386C111.482 28.7386 112.286 28.8778 113.03 29.1562C113.78 29.429 114.433 29.8409 114.99 30.392C115.553 30.9432 115.99 31.6364 116.303 32.4716C116.615 33.3011 116.771 34.2727 116.771 35.3864V36.3835H105.717V34.1335H113.354C113.354 33.6108 113.24 33.1477 113.013 32.7443C112.786 32.3409 112.47 32.0256 112.067 31.7983C111.669 31.5653 111.206 31.4489 110.678 31.4489C110.127 31.4489 109.638 31.5767 109.212 31.8324C108.791 32.0824 108.462 32.4205 108.223 32.8466C107.985 33.267 107.862 33.7358 107.857 34.2528V36.392C107.857 37.0398 107.976 37.5994 108.215 38.071C108.459 38.5426 108.803 38.9062 109.246 39.1619C109.689 39.4176 110.215 39.5455 110.823 39.5455C111.226 39.5455 111.595 39.4886 111.931 39.375C112.266 39.2614 112.553 39.0909 112.791 38.8636C113.03 38.6364 113.212 38.358 113.337 38.0284L116.695 38.25C116.524 39.0568 116.175 39.7614 115.646 40.3636C115.124 40.9602 114.448 41.4261 113.618 41.7614C112.794 42.0909 111.842 42.2557 110.763 42.2557ZM122.61 42.2472C121.775 42.2472 121.03 42.1023 120.377 41.8125C119.723 41.517 119.206 41.0824 118.826 40.5085C118.451 39.929 118.263 39.2074 118.263 38.3438C118.263 37.6165 118.397 37.0057 118.664 36.5114C118.931 36.017 119.294 35.6193 119.755 35.3182C120.215 35.017 120.738 34.7898 121.323 34.6364C121.914 34.483 122.533 34.375 123.181 34.3125C123.942 34.233 124.556 34.1591 125.022 34.0909C125.488 34.017 125.826 33.9091 126.036 33.767C126.246 33.625 126.351 33.4148 126.351 33.1364V33.0852C126.351 32.5455 126.181 32.1278 125.84 31.8324C125.505 31.5369 125.027 31.3892 124.408 31.3892C123.755 31.3892 123.235 31.5341 122.848 31.8239C122.462 32.108 122.206 32.4659 122.081 32.8977L118.723 32.625C118.894 31.8295 119.229 31.142 119.729 30.5625C120.229 29.9773 120.874 29.5284 121.664 29.2159C122.459 28.8977 123.38 28.7386 124.425 28.7386C125.152 28.7386 125.848 28.8239 126.513 28.9943C127.184 29.1648 127.777 29.429 128.294 29.7869C128.817 30.1449 129.229 30.6051 129.53 31.1676C129.831 31.7244 129.982 32.392 129.982 33.1705V42H126.539V40.1847H126.436C126.226 40.5938 125.945 40.9545 125.593 41.267C125.24 41.5739 124.817 41.8153 124.323 41.9915C123.828 42.1619 123.257 42.2472 122.61 42.2472ZM123.65 39.7415C124.184 39.7415 124.655 39.6364 125.064 39.4261C125.473 39.2102 125.794 38.9205 126.027 38.5568C126.26 38.1932 126.377 37.7812 126.377 37.321V35.9318C126.263 36.0057 126.107 36.0739 125.908 36.1364C125.715 36.1932 125.496 36.2472 125.252 36.2983C125.007 36.3437 124.763 36.3864 124.519 36.4261C124.275 36.4602 124.053 36.4915 123.854 36.5199C123.428 36.5824 123.056 36.6818 122.738 36.8182C122.419 36.9545 122.172 37.1392 121.996 37.3722C121.82 37.5994 121.732 37.8835 121.732 38.2244C121.732 38.7188 121.911 39.0966 122.269 39.358C122.632 39.6136 123.093 39.7415 123.65 39.7415ZM132.535 42V28.9091H136.055V31.1932H136.191C136.43 30.3807 136.83 29.767 137.393 29.3523C137.955 28.9318 138.603 28.7216 139.336 28.7216C139.518 28.7216 139.714 28.733 139.924 28.7557C140.134 28.7784 140.319 28.8097 140.478 28.8494V32.071C140.307 32.0199 140.072 31.9744 139.77 31.9347C139.469 31.8949 139.194 31.875 138.944 31.875C138.41 31.875 137.932 31.9915 137.512 32.2244C137.097 32.4517 136.768 32.7699 136.523 33.179C136.285 33.5881 136.165 34.0597 136.165 34.5938V42H132.535ZM145.449 42.2472C144.614 42.2472 143.869 42.1023 143.216 41.8125C142.563 41.517 142.046 41.0824 141.665 40.5085C141.29 39.929 141.102 39.2074 141.102 38.3438C141.102 37.6165 141.236 37.0057 141.503 36.5114C141.77 36.017 142.134 35.6193 142.594 35.3182C143.054 35.017 143.577 34.7898 144.162 34.6364C144.753 34.483 145.372 34.375 146.02 34.3125C146.781 34.233 147.395 34.1591 147.861 34.0909C148.327 34.017 148.665 33.9091 148.875 33.767C149.085 33.625 149.19 33.4148 149.19 33.1364V33.0852C149.19 32.5455 149.02 32.1278 148.679 31.8324C148.344 31.5369 147.867 31.3892 147.247 31.3892C146.594 31.3892 146.074 31.5341 145.688 31.8239C145.301 32.108 145.046 32.4659 144.921 32.8977L141.563 32.625C141.733 31.8295 142.068 31.142 142.568 30.5625C143.068 29.9773 143.713 29.5284 144.503 29.2159C145.298 28.8977 146.219 28.7386 147.264 28.7386C147.992 28.7386 148.688 28.8239 149.352 28.9943C150.023 29.1648 150.617 29.429 151.134 29.7869C151.656 30.1449 152.068 30.6051 152.369 31.1676C152.671 31.7244 152.821 32.392 152.821 33.1705V42H149.378V40.1847H149.276C149.065 40.5938 148.784 40.9545 148.432 41.267C148.08 41.5739 147.656 41.8153 147.162 41.9915C146.668 42.1619 146.097 42.2472 145.449 42.2472ZM146.489 39.7415C147.023 39.7415 147.494 39.6364 147.903 39.4261C148.313 39.2102 148.634 38.9205 148.867 38.5568C149.099 38.1932 149.216 37.7812 149.216 37.321V35.9318C149.102 36.0057 148.946 36.0739 148.747 36.1364C148.554 36.1932 148.335 36.2472 148.091 36.2983C147.847 36.3437 147.602 36.3864 147.358 36.4261C147.114 36.4602 146.892 36.4915 146.693 36.5199C146.267 36.5824 145.895 36.6818 145.577 36.8182C145.259 36.9545 145.011 37.1392 144.835 37.3722C144.659 37.5994 144.571 37.8835 144.571 38.2244C144.571 38.7188 144.75 39.0966 145.108 39.358C145.472 39.6136 145.932 39.7415 146.489 39.7415ZM159.005 34.4318V42H155.374V28.9091H158.834V31.2188H158.987C159.277 30.4574 159.763 29.8551 160.445 29.4119C161.127 28.9631 161.953 28.7386 162.925 28.7386C163.834 28.7386 164.627 28.9375 165.303 29.3352C165.979 29.733 166.505 30.3011 166.88 31.0398C167.255 31.7727 167.442 32.6477 167.442 33.6648V42H163.811V34.3125C163.817 33.5114 163.612 32.8864 163.198 32.4375C162.783 31.983 162.212 31.7557 161.485 31.7557C160.996 31.7557 160.564 31.8608 160.189 32.071C159.82 32.2812 159.53 32.5881 159.32 32.9915C159.115 33.3892 159.01 33.8693 159.005 34.4318ZM175.954 42.2557C174.613 42.2557 173.46 41.9716 172.494 41.4034C171.534 40.8295 170.795 40.0341 170.278 39.017C169.767 38 169.511 36.8295 169.511 35.5057C169.511 34.1648 169.77 32.9886 170.287 31.9773C170.809 30.9602 171.551 30.1676 172.511 29.5994C173.471 29.0256 174.613 28.7386 175.937 28.7386C177.079 28.7386 178.079 28.946 178.937 29.3608C179.795 29.7756 180.474 30.358 180.974 31.108C181.474 31.858 181.75 32.7386 181.801 33.75H178.375C178.278 33.0966 178.022 32.571 177.608 32.1733C177.199 31.7699 176.662 31.5682 175.997 31.5682C175.434 31.5682 174.943 31.7216 174.522 32.0284C174.108 32.3295 173.784 32.7699 173.551 33.3494C173.318 33.929 173.201 34.6307 173.201 35.4545C173.201 36.2898 173.315 37 173.542 37.5852C173.775 38.1705 174.102 38.6165 174.522 38.9233C174.943 39.2301 175.434 39.3835 175.997 39.3835C176.412 39.3835 176.784 39.2983 177.113 39.1278C177.449 38.9574 177.724 38.7102 177.94 38.3864C178.162 38.0568 178.307 37.6619 178.375 37.2017H181.801C181.744 38.2017 181.471 39.0824 180.983 39.8438C180.5 40.5994 179.832 41.1903 178.98 41.6165C178.128 42.0426 177.119 42.2557 175.954 42.2557ZM189.827 42.2557C188.481 42.2557 187.322 41.983 186.35 41.4375C185.384 40.8864 184.64 40.108 184.117 39.1023C183.594 38.0909 183.333 36.8949 183.333 35.5142C183.333 34.1676 183.594 32.9858 184.117 31.9688C184.64 30.9517 185.376 30.1591 186.325 29.5909C187.279 29.0227 188.398 28.7386 189.682 28.7386C190.546 28.7386 191.35 28.8778 192.094 29.1562C192.844 29.429 193.498 29.8409 194.055 30.392C194.617 30.9432 195.055 31.6364 195.367 32.4716C195.68 33.3011 195.836 34.2727 195.836 35.3864V36.3835H184.782V34.1335H192.418C192.418 33.6108 192.305 33.1477 192.077 32.7443C191.85 32.3409 191.535 32.0256 191.131 31.7983C190.734 31.5653 190.271 31.4489 189.742 31.4489C189.191 31.4489 188.702 31.5767 188.276 31.8324C187.856 32.0824 187.526 32.4205 187.288 32.8466C187.049 33.267 186.927 33.7358 186.921 34.2528V36.392C186.921 37.0398 187.04 37.5994 187.279 38.071C187.523 38.5426 187.867 38.9062 188.31 39.1619C188.754 39.4176 189.279 39.5455 189.887 39.5455C190.29 39.5455 190.66 39.4886 190.995 39.375C191.33 39.2614 191.617 39.0909 191.856 38.8636C192.094 38.6364 192.276 38.358 192.401 38.0284L195.759 38.25C195.589 39.0568 195.239 39.7614 194.711 40.3636C194.188 40.9602 193.512 41.4261 192.682 41.7614C191.859 42.0909 190.907 42.2557 189.827 42.2557ZM218.701 30.6562H214.968C214.899 30.1733 214.76 29.7443 214.55 29.3693C214.34 28.9886 214.07 28.6648 213.74 28.3977C213.411 28.1307 213.03 27.9261 212.598 27.7841C212.172 27.642 211.709 27.571 211.209 27.571C210.306 27.571 209.519 27.7955 208.848 28.2443C208.178 28.6875 207.658 29.3352 207.289 30.1875C206.919 31.0341 206.735 32.0625 206.735 33.2727C206.735 34.517 206.919 35.5625 207.289 36.4091C207.664 37.2557 208.186 37.8949 208.857 38.3267C209.527 38.7585 210.303 38.9744 211.184 38.9744C211.678 38.9744 212.135 38.9091 212.556 38.7784C212.982 38.6477 213.36 38.4574 213.689 38.2074C214.019 37.9517 214.292 37.642 214.507 37.2784C214.729 36.9148 214.882 36.5 214.968 36.0341L218.701 36.0511C218.604 36.8523 218.363 37.625 217.976 38.3693C217.596 39.108 217.081 39.7699 216.434 40.3551C215.792 40.9347 215.024 41.3949 214.132 41.7358C213.246 42.071 212.243 42.2386 211.124 42.2386C209.567 42.2386 208.175 41.8864 206.948 41.1818C205.726 40.4773 204.76 39.4574 204.05 38.1222C203.346 36.7869 202.993 35.1705 202.993 33.2727C202.993 31.3693 203.351 29.75 204.067 28.4148C204.783 27.0795 205.755 26.0625 206.982 25.3636C208.209 24.6591 209.59 24.3068 211.124 24.3068C212.135 24.3068 213.073 24.4489 213.936 24.733C214.806 25.017 215.576 25.4318 216.246 25.9773C216.917 26.517 217.462 27.179 217.882 27.9631C218.309 28.7472 218.581 29.6449 218.701 30.6562ZM224.645 24.5455V42H221.015V24.5455H224.645ZM231.023 42.2472C230.188 42.2472 229.443 42.1023 228.79 41.8125C228.136 41.517 227.619 41.0824 227.239 40.5085C226.864 39.929 226.676 39.2074 226.676 38.3438C226.676 37.6165 226.81 37.0057 227.077 36.5114C227.344 36.017 227.707 35.6193 228.168 35.3182C228.628 35.017 229.151 34.7898 229.736 34.6364C230.327 34.483 230.946 34.375 231.594 34.3125C232.355 34.233 232.969 34.1591 233.435 34.0909C233.901 34.017 234.239 33.9091 234.449 33.767C234.659 33.625 234.764 33.4148 234.764 33.1364V33.0852C234.764 32.5455 234.594 32.1278 234.253 31.8324C233.918 31.5369 233.44 31.3892 232.821 31.3892C232.168 31.3892 231.648 31.5341 231.261 31.8239C230.875 32.108 230.619 32.4659 230.494 32.8977L227.136 32.625C227.307 31.8295 227.642 31.142 228.142 30.5625C228.642 29.9773 229.287 29.5284 230.077 29.2159C230.872 28.8977 231.793 28.7386 232.838 28.7386C233.565 28.7386 234.261 28.8239 234.926 28.9943C235.597 29.1648 236.19 29.429 236.707 29.7869C237.23 30.1449 237.642 30.6051 237.943 31.1676C238.244 31.7244 238.395 32.392 238.395 33.1705V42H234.952V40.1847H234.849C234.639 40.5938 234.358 40.9545 234.006 41.267C233.653 41.5739 233.23 41.8153 232.736 41.9915C232.242 42.1619 231.671 42.2472 231.023 42.2472ZM232.063 39.7415C232.597 39.7415 233.068 39.6364 233.477 39.4261C233.886 39.2102 234.207 38.9205 234.44 38.5568C234.673 38.1932 234.79 37.7812 234.79 37.321V35.9318C234.676 36.0057 234.52 36.0739 234.321 36.1364C234.128 36.1932 233.909 36.2472 233.665 36.2983C233.421 36.3437 233.176 36.3864 232.932 36.4261C232.688 36.4602 232.466 36.4915 232.267 36.5199C231.841 36.5824 231.469 36.6818 231.151 36.8182C230.832 36.9545 230.585 37.1392 230.409 37.3722C230.233 37.5994 230.145 37.8835 230.145 38.2244C230.145 38.7188 230.324 39.0966 230.682 39.358C231.046 39.6136 231.506 39.7415 232.063 39.7415ZM251.84 32.642L248.516 32.8466C248.459 32.5625 248.337 32.3068 248.149 32.0795C247.962 31.8466 247.715 31.6619 247.408 31.5256C247.107 31.3835 246.746 31.3125 246.326 31.3125C245.763 31.3125 245.289 31.4318 244.902 31.6705C244.516 31.9034 244.323 32.2159 244.323 32.608C244.323 32.9205 244.448 33.1847 244.698 33.4006C244.948 33.6165 245.377 33.7898 245.985 33.9205L248.354 34.3977C249.627 34.6591 250.576 35.0795 251.201 35.6591C251.826 36.2386 252.138 37 252.138 37.9432C252.138 38.8011 251.885 39.554 251.38 40.2017C250.88 40.8494 250.192 41.3551 249.317 41.7188C248.448 42.0767 247.445 42.2557 246.308 42.2557C244.576 42.2557 243.195 41.8949 242.166 41.1733C241.144 40.446 240.544 39.4574 240.368 38.2074L243.939 38.0199C244.047 38.5483 244.308 38.9517 244.723 39.2301C245.138 39.5028 245.669 39.6392 246.317 39.6392C246.953 39.6392 247.465 39.517 247.851 39.2727C248.243 39.0227 248.442 38.7017 248.448 38.3097C248.442 37.9801 248.303 37.7102 248.03 37.5C247.757 37.2841 247.337 37.1193 246.769 37.0057L244.502 36.554C243.223 36.2983 242.272 35.8551 241.647 35.2244C241.027 34.5937 240.718 33.7898 240.718 32.8125C240.718 31.9716 240.945 31.2472 241.399 30.6392C241.86 30.0312 242.505 29.5625 243.334 29.233C244.169 28.9034 245.147 28.7386 246.266 28.7386C247.919 28.7386 249.22 29.0881 250.169 29.7869C251.124 30.4858 251.681 31.4375 251.84 32.642ZM265.052 32.642L261.728 32.8466C261.672 32.5625 261.549 32.3068 261.362 32.0795C261.174 31.8466 260.927 31.6619 260.62 31.5256C260.319 31.3835 259.959 31.3125 259.538 31.3125C258.976 31.3125 258.501 31.4318 258.115 31.6705C257.728 31.9034 257.535 32.2159 257.535 32.608C257.535 32.9205 257.66 33.1847 257.91 33.4006C258.16 33.6165 258.589 33.7898 259.197 33.9205L261.567 34.3977C262.839 34.6591 263.788 35.0795 264.413 35.6591C265.038 36.2386 265.351 37 265.351 37.9432C265.351 38.8011 265.098 39.554 264.592 40.2017C264.092 40.8494 263.405 41.3551 262.53 41.7188C261.66 42.0767 260.657 42.2557 259.521 42.2557C257.788 42.2557 256.407 41.8949 255.379 41.1733C254.356 40.446 253.757 39.4574 253.581 38.2074L257.152 38.0199C257.26 38.5483 257.521 38.9517 257.936 39.2301C258.351 39.5028 258.882 39.6392 259.53 39.6392C260.166 39.6392 260.677 39.517 261.064 39.2727C261.456 39.0227 261.655 38.7017 261.66 38.3097C261.655 37.9801 261.515 37.7102 261.243 37.5C260.97 37.2841 260.549 37.1193 259.981 37.0057L257.714 36.554C256.436 36.2983 255.484 35.8551 254.859 35.2244C254.24 34.5937 253.93 33.7898 253.93 32.8125C253.93 31.9716 254.157 31.2472 254.612 30.6392C255.072 30.0312 255.717 29.5625 256.547 29.233C257.382 28.9034 258.359 28.7386 259.478 28.7386C261.132 28.7386 262.433 29.0881 263.382 29.7869C264.336 30.4858 264.893 31.4375 265.052 32.642Z" fill="white"/>
<path d="M162.5 67C162.5 66.1716 161.828 65.5 161 65.5C160.172 65.5 159.5 66.1716 159.5 67H162.5ZM280.061 120.061C280.646 119.475 280.646 118.525 280.061 117.939L270.515 108.393C269.929 107.808 268.979 107.808 268.393 108.393C267.808 108.979 267.808 109.929 268.393 110.515L276.879 119L268.393 127.485C267.808 128.071 267.808 129.021 268.393 129.607C268.979 130.192 269.929 130.192 270.515 129.607L280.061 120.061ZM159.5 67V95H162.5V67H159.5ZM185 120.5H279V117.5H185V120.5ZM159.5 95C159.5 109.083 170.917 120.5 185 120.5V117.5C172.574 117.5 162.5 107.426 162.5 95H159.5Z" fill="#C4C4C4"/>
<path d="M162.5 67C162.5 66.1716 161.828 65.5 161 65.5C160.172 65.5 159.5 66.1716 159.5 67H162.5ZM280.061 224.061C280.646 223.475 280.646 222.525 280.061 221.939L270.515 212.393C269.929 211.808 268.979 211.808 268.393 212.393C267.808 212.979 267.808 213.929 268.393 214.515L276.879 223L268.393 231.485C267.808 232.071 267.808 233.021 268.393 233.607C268.979 234.192 269.929 234.192 270.515 233.607L280.061 224.061ZM159.5 67V199H162.5V67H159.5ZM185 224.5H279V221.5H185V224.5ZM159.5 199C159.5 213.083 170.917 224.5 185 224.5V221.5C172.574 221.5 162.5 211.426 162.5 199H159.5Z" fill="#C4C4C4"/>
<path d="M162.5 67C162.5 66.1716 161.828 65.5 161 65.5C160.172 65.5 159.5 66.1716 159.5 67H162.5ZM280.061 324.061C280.646 323.475 280.646 322.525 280.061 321.939L270.515 312.393C269.929 311.808 268.979 311.808 268.393 312.393C267.808 312.979 267.808 313.929 268.393 314.515L276.879 323L268.393 331.485C267.808 332.071 267.808 333.021 268.393 333.607C268.979 334.192 269.929 334.192 270.515 333.607L280.061 324.061ZM159.5 67V299H162.5V67H159.5ZM185 324.5H279V321.5H185V324.5ZM159.5 299C159.5 313.083 170.917 324.5 185 324.5V321.5C172.574 321.5 162.5 311.426 162.5 299H159.5Z" fill="#C4C4C4"/>
</svg>
