<?xml version="1.0" encoding="UTF-8"?>
<svg width="807px" height="699px" viewBox="0 0 807 699" version="1.1" xmlns="http://www.w3.org/2000/svg" xmlns:xlink="http://www.w3.org/1999/xlink">
    <title>undraw_connecting_teams_re_hno7</title>
    <g id="Page-1" stroke="none" stroke-width="1" fill="none" fill-rule="evenodd">
        <g id="undraw_connecting_teams_re_hno7" transform="translate(0.000030, -0.002363)" fill-rule="nonzero">
            <path d="M554.462961,215.991663 C554.384032,260.079253 518.580611,295.755939 474.49302,295.6779 C430.40543,295.599604 394.728743,259.796183 394.806783,215.708592 C394.885078,171.621002 430.688499,135.944315 474.77609,136.022354 C495.964604,136.005065 516.28616,144.433853 531.242119,159.44294 C546.198078,174.452027 554.554752,194.803344 554.462961,215.991663 Z" id="Path" fill="#F2F2F2"></path>
            <path d="M687.32085,262.525013 L698.54507,241.093013 C688.47981,228.938623 655.45659,214.197433 655.45659,214.197433 L610.76159,173.516063 C609.445641,168.497932 604.714223,165.150974 599.544272,165.581042 C594.374321,166.01111 590.260949,170.093831 589.792227,175.260422 C589.323504,180.427012 592.634982,185.183329 597.64313,186.536773 L645.9288,244.448103 L687.32085,262.525013 Z" id="Path" fill="#9E616A"></path>
            <path d="M681.88374,261.046323 L697.73245,266.092513 C709.257565,269.762089 721.677007,269.485606 733.0274,265.306773 L733.0274,265.306773 C740.031349,262.699108 744.948509,256.342526 745.71269,248.908063 L745.71269,248.908063 C746.697401,238.6499 739.568154,229.381978 729.4006,227.702573 C714.53779,225.260053 695.38702,224.055513 688.55476,232.185813 L688.48552,232.268203 L681.88374,261.046323 Z" id="Path" fill="#3F3D56"></path>
            <circle id="Oval" fill="#FFFFFF" cx="567.8861" cy="246.829913" r="79.82777"></circle>
            <path d="M535.30705,215.605703 C534.211401,221.492136 532.414833,227.226197 529.95571,232.685433 C515.87397,262.475113 555.97605,252.765243 570.30719,252.765243 C585.97619,252.765243 600.96819,261.004703 598.67839,224.394003 C597.70032,208.755543 585.97614,196.022773 570.30719,196.022773 C556.9233,196.022773 538.10566,201.971643 535.30705,215.605703 Z" id="Path" fill="#2F2E41"></path>
            <circle id="Oval" fill="#FFB6B6" cx="567.95956" cy="229.703363" r="23.05483"></circle>
            <path d="M552.30294,206.202153 C560.531358,201.185794 570.838962,201.049891 579.196775,205.847563 C587.554589,210.645236 592.635434,219.614638 592.45334,229.249863 C580.70568,232.199343 568.36403,234.456483 555.8361,229.955343 L552.87747,222.714463 L551.13321,229.960703 C547.31803,231.520123 543.49292,232.839543 539.66786,229.945653 C539.350012,220.34564 544.162935,211.301327 552.30294,206.202153 Z" id="Path" fill="#2F2E41"></path>
            <path d="M629.95596,299.910433 C601.180573,332.652442 551.456034,336.246052 518.27171,307.981893 L525.11871,288.876413 C528.271791,281.961488 534.984489,277.351923 542.57046,276.892413 L546.92637,276.625003 L557.313,267.666913 C557.313,267.666913 585.29917,266.667623 584.884,266.189113 L601.83616,276.385723 L601.82207,276.315373 L608.48607,276.723533 C616.072734,277.181062 622.78637,281.791259 625.93787,288.707533 L629.95596,299.910433 Z" id="Path" fill="#005FFF"></path>
            <path d="M560.88236,628.847343 L558.89885,601.258833 C545.905402,594.763573 531.522832,591.538264 517,591.862963 C537.43166,607.655883 535.7951,639.220573 549.9451,660.822583 C558.989393,674.401867 573.718566,683.130844 589.97275,684.544243 L606.97683,694.326763 C610.913359,668.308823 603.259817,641.871828 586.03259,621.980823 C581.202545,616.514304 575.703326,611.677791 569.66472,607.585433 C565.94795,618.256503 560.88236,628.847343 560.88236,628.847343 Z" id="Path" fill="#F2F2F2"></path>
            <path d="M43.88236,139.847343 L41.89885,112.258833 C28.9054022,105.763573 14.5228321,102.538264 0,102.862963 C20.43166,118.655883 18.7951,150.220573 32.9451,171.822583 C41.9893926,185.401867 56.7185663,194.130844 72.97275,195.544243 L89.97683,205.326763 C93.9133595,179.308823 86.2598165,152.871828 69.03259,132.980823 C64.2025454,127.514304 58.703326,122.677791 52.66472,118.585433 C48.94795,129.256503 43.88236,139.847343 43.88236,139.847343 Z" id="Path" fill="#F2F2F2"></path>
            <polygon id="Path" fill="#9E616A" points="635.26797 684.999363 622.00397 684.998363 615.69397 633.839363 635.26997 633.839363"></polygon>
            <path d="M638.65028,697.856433 L595.88276,697.854843 L595.88276,697.313903 C595.883401,688.120707 603.335874,680.66835 612.52907,680.667853 L612.53013,680.667853 L620.34218,674.741223 L634.91773,680.668763 L638.65107,680.668913 L638.65028,697.856433 Z" id="Path" fill="#2F2E41"></path>
            <polygon id="Path" fill="#9E616A" points="752.16497 684.999363 738.90197 684.998363 732.59197 633.839363 752.16797 633.839363"></polygon>
            <path d="M755.54795,697.856433 L712.78043,697.854843 L712.78043,697.313903 C712.781071,688.120707 720.233544,680.66835 729.42674,680.667853 L729.4278,680.667853 L737.23985,674.741243 L751.8154,680.668783 L755.54874,680.668933 L755.54795,697.856433 Z" id="Path" fill="#2F2E41"></path>
            <path d="M731.99204,411.188103 L743.14785,517.168823 C743.14785,517.168823 757.99885,623.285763 755.20985,637.927823 C752.42085,652.569883 755.90707,654.661633 755.90707,654.661633 L730.45899,652.849243 C730.45899,652.849243 731.15621,643.785093 726.97275,639.601683 C722.78929,635.418273 724.88107,622.867873 724.88107,622.867873 L675.51553,450.233643 L645.53415,540.875053 C645.53415,540.875053 640.65346,640.580623 639.95624,641.975053 C639.25902,643.369483 637.16724,662.195053 637.16724,662.195053 L611.36924,662.195053 C611.36924,662.195053 614.85543,651.039223 609.97473,647.552983 C605.09403,644.066743 600.91058,646.855753 605.09404,640.580553 C609.2775,634.305353 610.67196,626.635713 609.27751,623.149553 C607.88306,619.663393 607.883,605.718553 607.883,605.718553 C607.883,605.718553 609.97473,417.463353 621.82785,411.188153 C633.68097,404.912953 731.99204,411.188103 731.99204,411.188103 Z" id="Path" fill="#2F2E41"></path>
            <circle id="Oval" fill="#9E616A" cx="679.16038" cy="169.165533" r="27.4387"></circle>
            <path d="M741.47493,422.739123 C688.33632,433.712993 617.91683,414.846303 617.91683,414.846303 L636.702,333.416553 L630.02343,248.199023 C629.20784,237.777913 635.14343,228.009343 644.37735,224.547773 L657.12741,219.772163 L667.66622,204.684163 L697.76961,205.671873 L709.80375,221.511943 L719.30054,226.550383 L739.88911,237.469933 L739.9797,237.515173 L739.9797,237.560423 L733.51861,300.232243 L729.62209,338.020043 C729.62209,338.020043 741.45679,380.519963 739.02817,386.156513 C736.59966,391.783873 738.71117,389.065323 739.30007,392.073803 C739.88907,395.082393 741.6924,395.272663 741.96419,401.199133 C742.24516,407.116533 741.47493,422.739123 741.47493,422.739123 Z" id="Path" fill="#3F3D56"></path>
            <path d="M805.71239,698.768123 L395.24113,698.768123 C394.734573,698.766452 394.324812,698.355337 394.324812,697.848778 C394.324812,697.342218 394.734573,696.931103 395.24113,696.929433 L805.71239,696.929433 C806.22013,696.929433 806.631735,697.341037 806.631735,697.848778 C806.631735,698.356518 806.22013,698.768123 805.71239,698.768123 Z" id="Path" fill="#CCCCCC"></path>
            <path d="M677.82551,195.285923 C682.637969,195.236756 687.437435,194.77661 692.17157,193.910503 C696.85836,192.830773 707.199,184.834793 710.01728,180.111053 L710.01728,180.111053 C712.11107,176.601393 713.36778,171.172743 714.05353,167.236953 C715.925935,156.703213 713.244227,145.869513 706.6742,137.425563 C705.421847,135.676344 703.72,134.298128 701.74868,133.436703 C701.5743,133.373653 701.39512,133.318423 701.21425,133.271893 C698.356774,132.598399 695.765811,131.086213 693.77401,128.929483 C693.387293,128.492843 692.969629,128.084624 692.52426,127.707993 C690.28978,125.918949 687.663629,124.684106 684.8605,124.104413 C680.33198,123.016863 673.85408,124.379683 665.6072,128.158493 C661.46397,130.057043 656.86546,129.527393 653.32101,128.853813 C652.916668,128.786512 652.506977,128.938803 652.24477,129.253873 C650.781497,130.700425 648.824927,131.539512 646.7683,131.602493 C645.50985,131.690323 644.23314,133.468853 642.69421,135.784853 C642.34503,136.310583 641.93757,136.924153 641.64188,137.298553 L641.58274,136.595413 L640.89046,137.399413 C638.678409,139.967853 637.937021,143.490769 638.92625,146.73291 C639.91548,149.975051 642.497289,152.484006 645.76641,153.380053 C647.042418,153.684523 648.346178,153.857912 649.65741,153.897523 C650.45231,153.948403 651.27461,154.001033 652.06429,154.117143 C657.224172,155.03567 661.522047,158.597572 663.38253,163.497233 C663.820216,164.625387 664.757182,165.486178 665.918317,165.826861 C667.079453,166.167545 668.332969,165.949453 669.31081,165.236623 C670.939637,163.899332 673.11985,163.4439 675.14781,164.017313 C676.016658,164.471495 676.702938,165.210587 677.09158,166.110663 C677.561502,167.112477 678.319188,167.951608 679.26799,168.521023 C682.50325,170.084723 682.91158,177.371493 681.92189,183.480213 C680.96783,189.368483 678.89231,193.663913 676.87461,193.925693 C675.32134,194.127023 675.1461,194.242263 675.04043,194.520593 L674.94604,194.769753 L675.12693,194.995873 C675.995132,195.285491 676.915592,195.384424 677.82551,195.285923 Z" id="Path" fill="#2F2E41"></path>
            <path d="M567.88623,327.657643 C535.194499,327.657643 505.721803,307.964634 493.211213,277.761415 C480.700624,247.558197 487.615889,212.792785 510.732431,189.676237 C533.848972,166.55969 568.614383,159.644417 598.817604,172.154998 C629.020826,184.66558 648.71385,214.138272 648.71385,246.830003 C648.663238,291.448887 612.505114,327.60702 567.88623,327.657643 Z M567.88623,168.002363 C536.003424,168.002363 507.26,187.208087 495.058973,216.663957 C482.857945,246.119827 489.602099,280.025003 512.146644,302.569554 C534.69119,325.114106 568.596365,331.858267 598.052237,319.657248 C627.50811,307.456228 646.71385,278.712809 646.71385,246.830003 C646.6645,203.315165 611.401068,168.051723 567.88623,168.002363 L567.88623,168.002363 Z" id="Shape" fill="#3F3D56"></path>
            <circle id="Oval" fill="#FFFFFF" cx="288.88599" cy="80.8300026" r="79.82777"></circle>
            <circle id="Oval" fill="#FFB8B8" cx="292.58061" cy="62.9424526" r="26.03041"></circle>
            <path d="M315.4995,45.7462426 C315.4995,45.7462426 322.27691,32.7898826 307.36641,31.6120226 C307.36641,31.6120226 294.65507,20.0812126 281.69871,29.5040226 C281.69871,29.5040226 274.6316,29.5040226 270.76706,37.5012826 C270.76706,37.5012826 265.2088,35.3932826 263.98733,41.0348326 C263.98733,41.0348326 259.92019,52.8133726 263.98733,63.4140426 C268.05447,74.0147126 269.40541,75.1925526 269.40541,75.1925526 C269.40541,75.1925526 266.55181,62.0377126 282.81919,60.8598526 C299.08657,59.6819926 314.01038,49.4911626 315.36607,62.4475026 C316.72176,75.4038426 318.21207,69.5509726 318.21207,69.5509726 C318.21207,69.5509726 331.08829,51.0466326 315.4995,45.7462426 Z" id="f183d98d-beca-4def-af6d-fbe16b93cf6a-90" fill="#2F2E41"></path>
            <path d="M348.91985,133.910433 C320.144463,166.652442 270.419924,170.246052 237.2356,141.981893 L244.0826,122.876413 C247.235683,115.961485 253.948386,111.35192 261.53436,110.892413 L265.89026,110.625003 L276.27689,101.666913 C276.27689,101.666913 304.26306,100.667623 303.84789,100.189113 L320.80005,110.385723 L320.78596,110.315373 L327.44996,110.723533 C335.036625,111.181065 341.750263,115.79126 344.90177,122.707533 L348.91985,133.910433 Z" id="Path" fill="#005FFF"></path>
            <path d="M288.88623,161.657643 C256.194499,161.657643 226.721803,141.964634 214.211213,111.761415 C201.700624,81.5581968 208.615889,46.7927845 231.732431,23.6762373 C254.848972,0.5596901 289.614383,-6.35558336 319.817604,6.15499842 C350.020826,18.6655802 369.71385,48.1382721 369.71385,80.8300026 C369.663238,125.448887 333.505114,161.60702 288.88623,161.657643 Z M288.88623,2.00236259 C257.003424,2.00236259 228.26,21.2080873 216.058973,50.6639569 C203.857945,80.1198265 210.602099,114.025003 233.146644,136.569554 C255.69119,159.114106 289.596365,165.858267 319.052237,153.657248 C348.50811,141.456228 367.71385,112.712809 367.71385,80.8300026 C367.6645,37.3151647 332.401068,2.05172342 288.88623,2.00236259 Z" id="Shape" fill="#3F3D56"></path>
            <circle id="Oval" fill="#FFFFFF" cx="102.56279" cy="206.829913" r="79.82777"></circle>
            <path d="M65.56335,180.861983 C68.8642,170.342313 76.37043,160.694043 86.75135,157.137823 C97.13291,153.581603 112.33413,158.998883 120.13873,166.777093 C134.41486,181.004963 137.89873,229.882903 128.09048,245.328893 C126.13958,245.225623 119.40776,245.149243 117.43322,245.075283 L114.64,235.765593 L114.64,244.983533 C111.49428,244.886313 108.323947,244.819196 105.129,244.782183 C82.866077,244.506091 64.8099106,226.668851 64.26227,204.410953 C64.0067,194.165583 64.26256,185.007543 65.56335,180.861983 Z" id="Path" fill="#2F2E41"></path>
            <circle id="Oval" fill="#9E616A" cx="101.37884" cy="192.976343" r="22.75036"></circle>
            <path d="M81.74457,172.996013 L107.93941,159.879613 L107.93941,159.879613 C118.845446,164.794093 126.227923,175.237163 127.22312,187.157873 L127.87603,194.978663 L116.90691,192.186403 L115.70516,182.186003 L113.84242,191.406343 L108.78027,190.118343 L108.82839,174.592753 L103.7631,190.107243 L85.68321,185.953403 L81.74457,172.996013 Z" id="Path" fill="#2F2E41"></path>
            <path d="M161.80028,259.656663 C133.024893,292.398672 83.3003543,295.992282 50.11603,267.728123 L56.96303,248.622643 C60.1161147,241.707717 66.8288165,237.098152 74.41479,236.638643 L78.7707,236.371233 L89.15732,227.413143 C89.15732,227.413143 117.1435,226.413853 116.72832,225.935343 L133.68048,236.131953 L133.6664,236.061603 L140.3304,236.469753 C147.917061,236.927289 154.630695,241.537483 157.7822,248.453753 L161.80028,259.656663 Z" id="Path" fill="#005FFF"></path>
            <path d="M102.56304,287.657553 C69.8713104,287.657553 40.3986167,267.964537 27.8880306,237.761318 C15.3774445,207.5581 22.2927118,172.792689 45.4092541,149.676144 C68.5257964,126.559599 103.291206,119.644327 133.494426,132.154909 C163.697647,144.665492 183.39067,174.138183 183.39067,206.829913 C183.340058,251.448801 147.181928,287.606935 102.56304,287.657553 L102.56304,287.657553 Z M102.56304,128.002243 C70.6802349,128.002243 41.9368138,147.208004 29.7357897,176.663874 C17.5347656,206.119744 24.2789214,240.024919 46.8234677,262.569468 C69.368014,285.114017 103.273188,291.858177 132.72906,279.657157 C162.184931,267.456136 181.39067,238.712718 181.39067,206.829913 C181.341337,163.315059 146.077893,128.051598 102.56304,128.002243 L102.56304,128.002243 Z" id="Shape" fill="#3F3D56"></path>
            <path d="M641.61272,288.243503 L629.52736,267.285003 C613.8722,269.273663 583.73484,289.263003 583.73484,289.263003 L525.44062,305.213083 C520.49826,303.636269 515.137538,305.83876 512.731331,310.434782 C510.325124,315.030805 511.56929,320.691226 515.68102,323.8546 C519.792749,327.017975 525.582962,326.769479 529.40855,323.265463 L604.17562,313.512893 L641.61272,288.243503 Z" id="Path" fill="#9E616A"></path>
            <path d="M637.45162,292.042623 L664.50882,269.379623 L668.44529,251.137623 C669.995098,243.826446 667.261381,236.269237 661.39285,231.641543 L661.39285,231.641543 C653.25804,225.315058 641.613035,226.370667 634.74846,234.056833 C624.7244,245.299043 613.44879,260.825273 616.65446,270.949773 L616.68695,271.052363 L637.45162,292.042623 Z" id="Path" fill="#3F3D56"></path>
            <path d="M222.74627,370.772243 L121.08121,370.772243 C115.408177,370.765811 110.810888,366.168496 110.80449,360.495463 L110.80449,297.879303 C110.810888,292.206269 115.408177,287.608954 121.08121,287.602523 L222.74627,287.602523 C228.419322,287.608932 233.016641,292.206251 233.02305,297.879303 L233.02305,360.495423 C233.016663,366.16849 228.419338,370.765833 222.74627,370.772243 L222.74627,370.772243 Z" id="Path" fill="#E6E6E6"></path>
            <path d="M182.35313,362.706813 L128.22764,362.706813 C122.914519,362.700955 118.608768,358.395423 118.60264,353.082303 L118.60264,305.292303 C118.608768,299.979182 122.914519,295.67365 128.22764,295.667793 L215.6002,295.667793 C220.913226,295.673689 225.218813,299.979277 225.22471,305.292303 L225.22471,319.835753 C225.197844,343.501851 206.019229,362.680234 182.35313,362.706813 L182.35313,362.706813 Z" id="Path" fill="#005FFF"></path>
            <path d="M206.884,321.836503 L136.94348,321.836503 C135.683718,321.836503 134.66248,320.815264 134.66248,319.555503 C134.66248,318.295741 135.683718,317.274503 136.94348,317.274503 L206.884,317.274503 C208.143762,317.274503 209.165,318.295741 209.165,319.555503 C209.165,320.815264 208.143762,321.836503 206.884,321.836503 Z" id="Path" fill="#6C63FF"></path>
            <path d="M147.884,330.849833 L136.94348,330.849833 C135.683663,330.849833 134.66238,329.828549 134.66238,328.568733 C134.66238,327.308916 135.683663,326.287633 136.94348,326.287633 L147.884,326.287633 C149.143817,326.287633 150.1651,327.308916 150.1651,328.568733 C150.1651,329.828549 149.143817,330.849833 147.884,330.849833 Z" id="Path" fill="#005FFF"></path>
            <path d="M167.26101,339.863173 L136.94348,339.863173 C135.685525,339.860539 134.667146,338.840025 134.667146,337.582068 C134.667146,336.32411 135.685525,335.303596 136.94348,335.300963 L167.26101,335.300963 C168.518965,335.303596 169.537344,336.32411 169.537344,337.582068 C169.537344,338.840025 168.518965,339.860539 167.26101,339.863173 Z" id="Path" fill="#005FFF"></path>
            <circle id="Oval" fill="#3F3D56" cx="107.25664" cy="286.355433" r="21.50617"></circle>
            <path d="M486.74627,86.7722426 L385.08121,86.7722426 C379.408177,86.7658113 374.810888,82.1684957 374.80449,76.4954626 L374.80449,13.8793026 C374.810888,8.20626945 379.408177,3.60895384 385.08121,3.60252259 L486.74627,3.60252259 C492.419322,3.60893178 497.016641,8.20625062 497.02305,13.8793026 L497.02305,76.4954226 C497.016663,82.1684902 492.419338,86.7658334 486.74627,86.7722426 L486.74627,86.7722426 Z" id="Path" fill="#E6E6E6"></path>
            <path d="M446.35313,78.7068126 L392.22764,78.7068126 C386.914519,78.7009547 382.608768,74.3954234 382.60264,69.0823026 L382.60264,21.2923026 C382.608768,15.9791818 386.914519,11.6736505 392.22764,11.6677926 L479.6002,11.6677926 C484.913226,11.6736895 489.218813,15.979277 489.22471,21.2923026 L489.22471,35.8357526 C489.197844,59.501851 470.019229,78.6802337 446.35313,78.7068126 Z" id="Path" fill="#FFFFFF"></path>
            <path d="M470.884,37.8365026 L400.94348,37.8365026 C399.683718,37.8365026 398.66248,36.8152641 398.66248,35.5555026 C398.66248,34.2957411 399.683718,33.2745026 400.94348,33.2745026 L470.884,33.2745026 C472.143762,33.2745026 473.165,34.2957411 473.165,35.5555026 C473.165,36.8152641 472.143762,37.8365026 470.884,37.8365026 Z" id="Path" fill="#005FFF"></path>
            <path d="M411.884,46.8498326 L400.94348,46.8498326 C399.683663,46.8498326 398.66238,45.8285493 398.66238,44.5687326 C398.66238,43.3089158 399.683663,42.2876326 400.94348,42.2876326 L411.884,42.2876326 C413.143817,42.2876326 414.1651,43.3089158 414.1651,44.5687326 C414.1651,45.8285493 413.143817,46.8498326 411.884,46.8498326 Z" id="Path" fill="#005FFF"></path>
            <path d="M431.26101,55.8631726 L400.94348,55.8631726 C399.685525,55.8605387 398.667146,54.8400251 398.667146,53.5820676 C398.667146,52.3241101 399.685525,51.3035965 400.94348,51.3009626 L431.26101,51.3009626 C432.52083,51.3009626 433.542115,52.3222481 433.542115,53.5820676 C433.542115,54.8418871 432.52083,55.8631726 431.26101,55.8631726 Z" id="Path" fill="#005FFF"></path>
            <circle id="Oval" fill="#3F3D56" cx="371.25664" cy="77.3554326" r="21.50617"></circle>
        </g>
    </g>
</svg>